<?xml version="1.0" encoding="UTF-8" standalone="no"?>
<!DOCTYPE svg PUBLIC "-//W3C//DTD SVG 1.1//EN"
 "http://www.w3.org/Graphics/SVG/1.1/DTD/svg11.dtd">
<!-- Generated by graphviz version 14.1.5 (20260411.2331)
 -->
<!-- Title: G Pages: 1 -->
<svg width="963pt" height="397pt"
 viewBox="0.00 0.00 963.00 397.00" xmlns="http://www.w3.org/2000/svg" xmlns:xlink="http://www.w3.org/1999/xlink">
<g id="graph0" class="graph" transform="scale(1 1) rotate(0) translate(4 393)">
<title>G</title>
<polygon fill="#f8fafc" stroke="none" points="-4,4 -4,-393 959,-393 959,4 -4,4"/>
<!-- Client -->
<g id="node1" class="node">
<title>Client</title>
<path fill="#eef2ff" stroke="none" stroke-width="1.2" d="M98,-389C98,-389 12,-389 12,-389 6,-389 0,-383 0,-377 0,-377 0,-209 0,-209 0,-203 6,-197 12,-197 12,-197 98,-197 98,-197 104,-197 110,-203 110,-209 110,-209 110,-377 110,-377 110,-383 104,-389 98,-389"/>
<path fill="#eef2ff" stroke="none" d="M20,-201C20,-201 90,-201 90,-201 96,-201 102,-207 102,-213 102,-213 102,-373 102,-373 102,-379 96,-385 90,-385 90,-385 20,-385 20,-385 14,-385 8,-379 8,-373 8,-373 8,-213 8,-213 8,-207 14,-201 20,-201"/>
<text xml:space="preserve" text-anchor="start" x="38.12" y="-364.98" font-family="Helvetica,sans-Serif" font-weight="bold" font-size="12.00" fill="#1e1b4b">Users</text>
<path fill="none" stroke="#6366f1" d="M20,-201C20,-201 90,-201 90,-201 96,-201 102,-207 102,-213 102,-213 102,-373 102,-373 102,-379 96,-385 90,-385 90,-385 20,-385 20,-385 14,-385 8,-379 8,-373 8,-373 8,-213 8,-213 8,-207 14,-201 20,-201"/>
</g>
<!-- RPC -->
<g id="node2" class="node">
<title>RPC</title>
<path fill="#eef2ff" stroke="none" stroke-width="1.2" d="M431.5,-389C431.5,-389 297.5,-389 297.5,-389 291.5,-389 285.5,-383 285.5,-377 285.5,-377 285.5,-209 285.5,-209 285.5,-203 291.5,-197 297.5,-197 297.5,-197 431.5,-197 431.5,-197 437.5,-197 443.5,-203 443.5,-209 443.5,-209 443.5,-377 443.5,-377 443.5,-383 437.5,-389 431.5,-389"/>
<path fill="#ffffff" stroke="none" d="M305.5,-201C305.5,-201 423.5,-201 423.5,-201 429.5,-201 435.5,-207 435.5,-213 435.5,-213 435.5,-373 435.5,-373 435.5,-379 429.5,-385 423.5,-385 423.5,-385 305.5,-385 305.5,-385 299.5,-385 293.5,-379 293.5,-373 293.5,-373 293.5,-213 293.5,-213 293.5,-207 299.5,-201 305.5,-201"/>
<text xml:space="preserve" text-anchor="start" x="351.38" y="-365.62" font-family="Helvetica,sans-Serif" font-size="12.00" fill="#0f172a">RPC</text>
<path fill="#eef2ff" stroke="none" d="M311.17,-322C311.17,-322 417.83,-322 417.83,-322 423.17,-322 428.5,-327.33 428.5,-332.67 428.5,-332.67 428.5,-343.33 428.5,-343.33 428.5,-348.67 423.17,-354 417.83,-354 417.83,-354 311.17,-354 311.17,-354 305.83,-354 300.5,-348.67 300.5,-343.33 300.5,-343.33 300.5,-332.67 300.5,-332.67 300.5,-327.33 305.83,-322 311.17,-322"/>
<path fill="none" stroke="#6366f1" d="M311.17,-322C311.17,-322 417.83,-322 417.83,-322 423.17,-322 428.5,-327.33 428.5,-332.67 428.5,-332.67 428.5,-343.33 428.5,-343.33 428.5,-348.67 423.17,-354 417.83,-354 417.83,-354 311.17,-354 311.17,-354 305.83,-354 300.5,-348.67 300.5,-343.33 300.5,-343.33 300.5,-332.67 300.5,-332.67 300.5,-327.33 305.83,-322 311.17,-322"/>
<text xml:space="preserve" text-anchor="start" x="331.5" y="-335.38" font-family="Helvetica,sans-Serif" font-size="10.00" fill="#1e1b4b">Photon Indexer</text>
<path fill="#eef2ff" stroke="none" d="M311.17,-284C311.17,-284 417.83,-284 417.83,-284 423.17,-284 428.5,-289.33 428.5,-294.67 428.5,-294.67 428.5,-305.33 428.5,-305.33 428.5,-310.67 423.17,-316 417.83,-316 417.83,-316 311.17,-316 311.17,-316 305.83,-316 300.5,-310.67 300.5,-305.33 300.5,-305.33 300.5,-294.67 300.5,-294.67 300.5,-289.33 305.83,-284 311.17,-284"/>
<path fill="none" stroke="#6366f1" d="M311.17,-284C311.17,-284 417.83,-284 417.83,-284 423.17,-284 428.5,-289.33 428.5,-294.67 428.5,-294.67 428.5,-305.33 428.5,-305.33 428.5,-310.67 423.17,-316 417.83,-316 417.83,-316 311.17,-316 311.17,-316 305.83,-316 300.5,-310.67 300.5,-305.33 300.5,-305.33 300.5,-294.67 300.5,-294.67 300.5,-289.33 305.83,-284 311.17,-284"/>
<text xml:space="preserve" text-anchor="start" x="310.12" y="-297.38" font-family="Helvetica,sans-Serif" font-size="10.00" fill="#1e1b4b">Pocket RPC with auditor</text>
<path fill="#eef2ff" stroke="none" d="M311.17,-246C311.17,-246 417.83,-246 417.83,-246 423.17,-246 428.5,-251.33 428.5,-256.67 428.5,-256.67 428.5,-267.33 428.5,-267.33 428.5,-272.67 423.17,-278 417.83,-278 417.83,-278 311.17,-278 311.17,-278 305.83,-278 300.5,-272.67 300.5,-267.33 300.5,-267.33 300.5,-256.67 300.5,-256.67 300.5,-251.33 305.83,-246 311.17,-246"/>
<path fill="none" stroke="#6366f1" d="M311.17,-246C311.17,-246 417.83,-246 417.83,-246 423.17,-246 428.5,-251.33 428.5,-256.67 428.5,-256.67 428.5,-267.33 428.5,-267.33 428.5,-272.67 423.17,-278 417.83,-278 417.83,-278 311.17,-278 311.17,-278 305.83,-278 300.5,-272.67 300.5,-267.33 300.5,-267.33 300.5,-256.67 300.5,-256.67 300.5,-251.33 305.83,-246 311.17,-246"/>
<text xml:space="preserve" text-anchor="start" x="350.25" y="-259.38" font-family="Helvetica,sans-Serif" font-size="10.00" fill="#1e1b4b">Prover</text>
<path fill="#eef2ff" stroke="none" d="M311.17,-208C311.17,-208 417.83,-208 417.83,-208 423.17,-208 428.5,-213.33 428.5,-218.67 428.5,-218.67 428.5,-229.33 428.5,-229.33 428.5,-234.67 423.17,-240 417.83,-240 417.83,-240 311.17,-240 311.17,-240 305.83,-240 300.5,-234.67 300.5,-229.33 300.5,-229.33 300.5,-218.67 300.5,-218.67 300.5,-213.33 305.83,-208 311.17,-208"/>
<path fill="none" stroke="#6366f1" d="M311.17,-208C311.17,-208 417.83,-208 417.83,-208 423.17,-208 428.5,-213.33 428.5,-218.67 428.5,-218.67 428.5,-229.33 428.5,-229.33 428.5,-234.67 423.17,-240 417.83,-240 417.83,-240 311.17,-240 311.17,-240 305.83,-240 300.5,-234.67 300.5,-229.33 300.5,-229.33 300.5,-218.67 300.5,-218.67 300.5,-213.33 305.83,-208 311.17,-208"/>
<text xml:space="preserve" text-anchor="start" x="347.62" y="-221.38" font-family="Helvetica,sans-Serif" font-size="10.00" fill="#1e1b4b">Relayer</text>
<path fill="none" stroke="#cbd5e1" d="M305.5,-201C305.5,-201 423.5,-201 423.5,-201 429.5,-201 435.5,-207 435.5,-213 435.5,-213 435.5,-373 435.5,-373 435.5,-379 429.5,-385 423.5,-385 423.5,-385 305.5,-385 305.5,-385 299.5,-385 293.5,-379 293.5,-373 293.5,-373 293.5,-213 293.5,-213 293.5,-207 299.5,-201 305.5,-201"/>
</g>
<!-- Client&#45;&gt;RPC -->
<g id="edge1" class="edge">
<title>Client:e&#45;&gt;RPC:w</title>
<path fill="none" stroke="#475569" stroke-width="1.1" stroke-dasharray="5,2" d="M107.52,-338C143.34,-338 252.46,-338 288.1,-338"/>
<polygon fill="#475569" stroke="#475569" stroke-width="1.1" points="107.66,-334.5 97.66,-338 107.66,-341.5 107.66,-334.5"/>
<polygon fill="#475569" stroke="#475569" stroke-width="1.1" points="287.84,-341.5 297.84,-338 287.84,-334.5 287.84,-341.5"/>
<text xml:space="preserve" text-anchor="middle" x="197.75" y="-339.75" font-family="Helvetica,sans-Serif" font-size="10.00" fill="#334155">fetch encrypted UTXOs</text>
</g>
<!-- Client&#45;&gt;RPC -->
<g id="edge2" class="edge">
<title>Client:e&#45;&gt;RPC:w</title>
<path fill="none" stroke="#475569" stroke-width="1.1" stroke-dasharray="5,2" d="M107.52,-300C143.34,-300 252.46,-300 288.1,-300"/>
<polygon fill="#475569" stroke="#475569" stroke-width="1.1" points="107.66,-296.5 97.66,-300 107.66,-303.5 107.66,-296.5"/>
<polygon fill="#475569" stroke="#475569" stroke-width="1.1" points="287.84,-303.5 297.84,-300 287.84,-296.5 287.84,-303.5"/>
<text xml:space="preserve" text-anchor="middle" x="197.75" y="-301.75" font-family="Helvetica,sans-Serif" font-size="10.00" fill="#334155">fetch decrypted UTXOs</text>
</g>
<!-- Client&#45;&gt;RPC -->
<g id="edge3" class="edge">
<title>Client:e&#45;&gt;RPC:w</title>
<path fill="none" stroke="#475569" stroke-width="1.1" stroke-dasharray="5,2" d="M107.52,-262C143.34,-262 252.46,-262 288.1,-262"/>
<polygon fill="#475569" stroke="#475569" stroke-width="1.1" points="107.66,-258.5 97.66,-262 107.66,-265.5 107.66,-258.5"/>
<polygon fill="#475569" stroke="#475569" stroke-width="1.1" points="287.84,-265.5 297.84,-262 287.84,-258.5 287.84,-265.5"/>
<text xml:space="preserve" text-anchor="middle" x="197.75" y="-263.75" font-family="Helvetica,sans-Serif" font-size="10.00" fill="#334155">fetch proofs</text>
</g>
<!-- Client&#45;&gt;RPC -->
<g id="edge4" class="edge">
<title>Client:e&#45;&gt;RPC:w</title>
<path fill="none" stroke="#475569" stroke-width="1.1" d="M96,-224C96,-224 244.93,-224 287.98,-224"/>
<polygon fill="#475569" stroke="#475569" stroke-width="1.1" points="287.84,-227.5 297.84,-224 287.84,-220.5 287.84,-227.5"/>
<text xml:space="preserve" text-anchor="middle" x="197.75" y="-225.75" font-family="Helvetica,sans-Serif" font-size="10.00" fill="#334155">send transaction</text>
</g>
<!-- Solana -->
<g id="node4" class="node">
<title>Solana</title>
<path fill="#eef2ff" stroke="none" stroke-width="1.2" d="M943,-292C943,-292 625,-292 625,-292 619,-292 613,-286 613,-280 613,-280 613,-12 613,-12 613,-6 619,0 625,0 625,0 943,0 943,0 949,0 955,-6 955,-12 955,-12 955,-280 955,-280 955,-286 949,-292 943,-292"/>
<path fill="#ffffff" stroke="none" d="M633,-4C633,-4 935,-4 935,-4 941,-4 947,-10 947,-16 947,-16 947,-276 947,-276 947,-282 941,-288 935,-288 935,-288 633,-288 633,-288 627,-288 621,-282 621,-276 621,-276 621,-16 621,-16 621,-10 627,-4 633,-4"/>
<text xml:space="preserve" text-anchor="start" x="764.88" y="-268.62" font-family="Helvetica,sans-Serif" font-size="12.00" fill="#0f172a">Solana</text>
<path fill="#eef2ff" stroke="none" d="M812,-111C812,-111 928,-111 928,-111 934,-111 940,-117 940,-123 940,-123 940,-245 940,-245 940,-251 934,-257 928,-257 928,-257 812,-257 812,-257 806,-257 800,-251 800,-245 800,-245 800,-123 800,-123 800,-117 806,-111 812,-111"/>
<path fill="none" stroke="#6366f1" d="M812,-111C812,-111 928,-111 928,-111 934,-111 940,-117 940,-123 940,-123 940,-245 940,-245 940,-251 934,-257 928,-257 928,-257 812,-257 812,-257 806,-257 800,-251 800,-245 800,-245 800,-123 800,-123 800,-117 806,-111 812,-111"/>
<text xml:space="preserve" text-anchor="start" x="859.88" y="-187" font-family="Helvetica,sans-Serif" font-size="10.00" fill="#1e1b4b">SPP</text>
<text xml:space="preserve" text-anchor="start" x="820.12" y="-175.75" font-family="Helvetica,sans-Serif" font-size="10.00" fill="#1e1b4b">Shielded Pool Program</text>
<path fill="#eef2ff" stroke="none" d="M638.67,-187C638.67,-187 727.33,-187 727.33,-187 732.67,-187 738,-192.33 738,-197.67 738,-197.67 738,-208.33 738,-208.33 738,-213.67 732.67,-219 727.33,-219 727.33,-219 638.67,-219 638.67,-219 633.33,-219 628,-213.67 628,-208.33 628,-208.33 628,-197.67 628,-197.67 628,-192.33 633.33,-187 638.67,-187"/>
<path fill="none" stroke="#6366f1" d="M638.67,-187C638.67,-187 727.33,-187 727.33,-187 732.67,-187 738,-192.33 738,-197.67 738,-197.67 738,-208.33 738,-208.33 738,-213.67 732.67,-219 727.33,-219 727.33,-219 638.67,-219 638.67,-219 633.33,-219 628,-213.67 628,-208.33 628,-208.33 628,-197.67 628,-197.67 628,-192.33 633.33,-187 638.67,-187"/>
<text xml:space="preserve" text-anchor="start" x="645.5" y="-200.38" font-family="Helvetica,sans-Serif" font-size="10.00" fill="#1e1b4b">Policy Program 1</text>
<text xml:space="preserve" text-anchor="start" x="754" y="-199.62" font-family="Helvetica,sans-Serif" font-size="10.00" fill="#475569">CPI →</text>
<path fill="#eef2ff" stroke="none" d="M638.67,-149C638.67,-149 727.33,-149 727.33,-149 732.67,-149 738,-154.33 738,-159.67 738,-159.67 738,-170.33 738,-170.33 738,-175.67 732.67,-181 727.33,-181 727.33,-181 638.67,-181 638.67,-181 633.33,-181 628,-175.67 628,-170.33 628,-170.33 628,-159.67 628,-159.67 628,-154.33 633.33,-149 638.67,-149"/>
<path fill="none" stroke="#6366f1" d="M638.67,-149C638.67,-149 727.33,-149 727.33,-149 732.67,-149 738,-154.33 738,-159.67 738,-159.67 738,-170.33 738,-170.33 738,-175.67 732.67,-181 727.33,-181 727.33,-181 638.67,-181 638.67,-181 633.33,-181 628,-175.67 628,-170.33 628,-170.33 628,-159.67 628,-159.67 628,-154.33 633.33,-149 638.67,-149"/>
<text xml:space="preserve" text-anchor="start" x="645.5" y="-162.38" font-family="Helvetica,sans-Serif" font-size="10.00" fill="#1e1b4b">Policy Program 2</text>
<text xml:space="preserve" text-anchor="start" x="754" y="-161.62" font-family="Helvetica,sans-Serif" font-size="10.00" fill="#475569">CPI →</text>
<path fill="#eef2ff" stroke="none" d="M638.67,-111C638.67,-111 727.33,-111 727.33,-111 732.67,-111 738,-116.33 738,-121.67 738,-121.67 738,-132.33 738,-132.33 738,-137.67 732.67,-143 727.33,-143 727.33,-143 638.67,-143 638.67,-143 633.33,-143 628,-137.67 628,-132.33 628,-132.33 628,-121.67 628,-121.67 628,-116.33 633.33,-111 638.67,-111"/>
<path fill="none" stroke="#6366f1" d="M638.67,-111C638.67,-111 727.33,-111 727.33,-111 732.67,-111 738,-116.33 738,-121.67 738,-121.67 738,-132.33 738,-132.33 738,-137.67 732.67,-143 727.33,-143 727.33,-143 638.67,-143 638.67,-143 633.33,-143 628,-137.67 628,-132.33 628,-132.33 628,-121.67 628,-121.67 628,-116.33 633.33,-111 638.67,-111"/>
<text xml:space="preserve" text-anchor="start" x="644.38" y="-124.38" font-family="Helvetica,sans-Serif" font-size="10.00" fill="#1e1b4b">Policy Program N</text>
<text xml:space="preserve" text-anchor="start" x="754" y="-123.62" font-family="Helvetica,sans-Serif" font-size="10.00" fill="#475569">CPI →</text>
<path fill="#e0f2fe" stroke="none" d="M810.67,-73C810.67,-73 929.33,-73 929.33,-73 934.67,-73 940,-78.33 940,-83.67 940,-83.67 940,-94.33 940,-94.33 940,-99.67 934.67,-105 929.33,-105 929.33,-105 810.67,-105 810.67,-105 805.33,-105 800,-99.67 800,-94.33 800,-94.33 800,-83.67 800,-83.67 800,-78.33 805.33,-73 810.67,-73"/>
<path fill="none" stroke="#0284c7" d="M810.67,-73C810.67,-73 929.33,-73 929.33,-73 934.67,-73 940,-78.33 940,-83.67 940,-83.67 940,-94.33 940,-94.33 940,-99.67 934.67,-105 929.33,-105 929.33,-105 810.67,-105 810.67,-105 805.33,-105 800,-99.67 800,-94.33 800,-94.33 800,-83.67 800,-83.67 800,-78.33 805.33,-73 810.67,-73"/>
<text xml:space="preserve" text-anchor="start" x="826.12" y="-86.38" font-family="Helvetica,sans-Serif" font-size="10.00" fill="#0c4a6e">SPL interface vaults</text>
<path fill="#e0f2fe" stroke="none" d="M812,-11C812,-11 928,-11 928,-11 934,-11 940,-17 940,-23 940,-23 940,-55 940,-55 940,-61 934,-67 928,-67 928,-67 812,-67 812,-67 806,-67 800,-61 800,-55 800,-55 800,-23 800,-23 800,-17 806,-11 812,-11"/>
<path fill="none" stroke="#0284c7" d="M812,-11C812,-11 928,-11 928,-11 934,-11 940,-17 940,-23 940,-23 940,-55 940,-55 940,-61 934,-67 928,-67 928,-67 812,-67 812,-67 806,-67 800,-61 800,-55 800,-55 800,-23 800,-23 800,-17 806,-11 812,-11"/>
<text xml:space="preserve" text-anchor="start" x="838.88" y="-53.25" font-family="Helvetica,sans-Serif" font-size="10.00" fill="#0c4a6e">Tree accounts</text>
<text xml:space="preserve" text-anchor="start" x="846.38" y="-42" font-family="Helvetica,sans-Serif" font-size="10.00" fill="#0c4a6e">UTXO tree</text>
<text xml:space="preserve" text-anchor="start" x="844.88" y="-30.75" font-family="Helvetica,sans-Serif" font-size="10.00" fill="#0c4a6e">nullifier tree</text>
<text xml:space="preserve" text-anchor="start" x="840" y="-19.5" font-family="Helvetica,sans-Serif" font-size="10.00" fill="#0c4a6e">nullifier queue</text>
<path fill="none" stroke="#cbd5e1" d="M633,-4C633,-4 935,-4 935,-4 941,-4 947,-10 947,-16 947,-16 947,-276 947,-276 947,-282 941,-288 935,-288 935,-288 633,-288 633,-288 627,-288 621,-282 621,-276 621,-276 621,-16 621,-16 621,-10 627,-4 633,-4"/>
</g>
<!-- RPC&#45;&gt;Solana -->
<g id="edge5" class="edge">
<title>RPC:ne&#45;&gt;Solana:nw</title>
<path fill="none" stroke="#475569" stroke-width="1.1" d="M429.5,-240C429.5,-240 725.17,-253.6 787.54,-256.47"/>
<polygon fill="#475569" stroke="#475569" stroke-width="1.1" points="787.19,-259.96 797.34,-256.92 787.51,-252.97 787.19,-259.96"/>
<text xml:space="preserve" text-anchor="middle" x="528.25" y="-248.23" font-family="Helvetica,sans-Serif" font-size="10.00" fill="#334155">submit tx</text>
</g>
<!-- RPC&#45;&gt;Solana -->
<g id="edge6" class="edge">
<title>RPC:e&#45;&gt;Solana:w</title>
<path fill="none" stroke="#475569" stroke-width="1.1" d="M429.5,-224C429.5,-224 573.38,-208.7 615.53,-204.22"/>
<polygon fill="#475569" stroke="#475569" stroke-width="1.1" points="615.77,-207.71 625.34,-203.18 615.03,-200.75 615.77,-207.71"/>
</g>
<!-- Forester -->
<g id="node3" class="node">
<title>Forester</title>
<path fill="#eef2ff" stroke="#6366f1" stroke-width="1.2" d="M380.75,-57C380.75,-57 348.25,-57 348.25,-57 342.25,-57 336.25,-51 336.25,-45 336.25,-45 336.25,-33 336.25,-33 336.25,-27 342.25,-21 348.25,-21 348.25,-21 380.75,-21 380.75,-21 386.75,-21 392.75,-27 392.75,-33 392.75,-33 392.75,-45 392.75,-45 392.75,-51 386.75,-57 380.75,-57"/>
<text xml:space="preserve" text-anchor="middle" x="364.5" y="-34.55" font-family="Helvetica,sans-Serif" font-size="11.00" fill="#1e1b4b">Forester</text>
</g>
<!-- Forester&#45;&gt;Solana -->
<g id="edge7" class="edge">
<title>Forester&#45;&gt;Solana:w</title>
<path fill="none" stroke="#475569" stroke-width="1.1" d="M393.28,-39C477.93,-39 730.39,-39 787.45,-39"/>
<polygon fill="#475569" stroke="#475569" stroke-width="1.1" points="787.34,-42.5 797.34,-39 787.34,-35.5 787.34,-42.5"/>
<text xml:space="preserve" text-anchor="middle" x="528.25" y="-40.75" font-family="Helvetica,sans-Serif" font-size="10.00" fill="#334155">process nullifier queue</text>
</g>
</g>
</svg>
