<?xml version="1.0" encoding="UTF-8" standalone="no"?>
<!DOCTYPE svg PUBLIC "-//W3C//DTD SVG 1.1//EN"
 "http://www.w3.org/Graphics/SVG/1.1/DTD/svg11.dtd">
<!-- Generated by graphviz version 14.1.5 (20260411.2331)
 -->
<!-- Title: G Pages: 1 -->
<svg width="1183pt" height="377pt"
 viewBox="0.00 0.00 1183.00 377.00" xmlns="http://www.w3.org/2000/svg" xmlns:xlink="http://www.w3.org/1999/xlink">
<g id="graph0" class="graph" transform="scale(1 1) rotate(0) translate(4 372.88)">
<title>G</title>
<polygon fill="#f8fafc" stroke="none" points="-4,4 -4,-372.88 1179,-372.88 1179,4 -4,4"/>
<!-- Client -->
<g id="node1" class="node">
<title>Client</title>
<path fill="#eef2ff" stroke="none" stroke-width="1.2" d="M98,-368.88C98,-368.88 12,-368.88 12,-368.88 6,-368.88 0,-362.88 0,-356.88 0,-356.88 0,-188.88 0,-188.88 0,-182.88 6,-176.88 12,-176.88 12,-176.88 98,-176.88 98,-176.88 104,-176.88 110,-182.88 110,-188.88 110,-188.88 110,-356.88 110,-356.88 110,-362.88 104,-368.88 98,-368.88"/>
<path fill="#eef2ff" stroke="none" d="M20,-180.88C20,-180.88 90,-180.88 90,-180.88 96,-180.88 102,-186.88 102,-192.88 102,-192.88 102,-352.88 102,-352.88 102,-358.88 96,-364.88 90,-364.88 90,-364.88 20,-364.88 20,-364.88 14,-364.88 8,-358.88 8,-352.88 8,-352.88 8,-192.88 8,-192.88 8,-186.88 14,-180.88 20,-180.88"/>
<text xml:space="preserve" text-anchor="start" x="38.12" y="-344.85" font-family="Helvetica,sans-Serif" font-weight="bold" font-size="12.00" fill="#1e1b4b">Users</text>
<path fill="none" stroke="#6366f1" d="M20,-180.88C20,-180.88 90,-180.88 90,-180.88 96,-180.88 102,-186.88 102,-192.88 102,-192.88 102,-352.88 102,-352.88 102,-358.88 96,-364.88 90,-364.88 90,-364.88 20,-364.88 20,-364.88 14,-364.88 8,-358.88 8,-352.88 8,-352.88 8,-192.88 8,-192.88 8,-186.88 14,-180.88 20,-180.88"/>
</g>
<!-- RPC -->
<g id="node2" class="node">
<title>RPC</title>
<path fill="#eef2ff" stroke="none" stroke-width="1.2" d="M431.5,-368.88C431.5,-368.88 297.5,-368.88 297.5,-368.88 291.5,-368.88 285.5,-362.88 285.5,-356.88 285.5,-356.88 285.5,-188.88 285.5,-188.88 285.5,-182.88 291.5,-176.88 297.5,-176.88 297.5,-176.88 431.5,-176.88 431.5,-176.88 437.5,-176.88 443.5,-182.88 443.5,-188.88 443.5,-188.88 443.5,-356.88 443.5,-356.88 443.5,-362.88 437.5,-368.88 431.5,-368.88"/>
<path fill="#ffffff" stroke="none" d="M305.5,-180.88C305.5,-180.88 423.5,-180.88 423.5,-180.88 429.5,-180.88 435.5,-186.88 435.5,-192.88 435.5,-192.88 435.5,-352.88 435.5,-352.88 435.5,-358.88 429.5,-364.88 423.5,-364.88 423.5,-364.88 305.5,-364.88 305.5,-364.88 299.5,-364.88 293.5,-358.88 293.5,-352.88 293.5,-352.88 293.5,-192.88 293.5,-192.88 293.5,-186.88 299.5,-180.88 305.5,-180.88"/>
<text xml:space="preserve" text-anchor="start" x="351.38" y="-345.5" font-family="Helvetica,sans-Serif" font-size="12.00" fill="#0f172a">RPC</text>
<path fill="#eef2ff" stroke="none" d="M311.17,-301.88C311.17,-301.88 417.83,-301.88 417.83,-301.88 423.17,-301.88 428.5,-307.21 428.5,-312.54 428.5,-312.54 428.5,-323.21 428.5,-323.21 428.5,-328.54 423.17,-333.88 417.83,-333.88 417.83,-333.88 311.17,-333.88 311.17,-333.88 305.83,-333.88 300.5,-328.54 300.5,-323.21 300.5,-323.21 300.5,-312.54 300.5,-312.54 300.5,-307.21 305.83,-301.88 311.17,-301.88"/>
<path fill="none" stroke="#6366f1" d="M311.17,-301.88C311.17,-301.88 417.83,-301.88 417.83,-301.88 423.17,-301.88 428.5,-307.21 428.5,-312.54 428.5,-312.54 428.5,-323.21 428.5,-323.21 428.5,-328.54 423.17,-333.88 417.83,-333.88 417.83,-333.88 311.17,-333.88 311.17,-333.88 305.83,-333.88 300.5,-328.54 300.5,-323.21 300.5,-323.21 300.5,-312.54 300.5,-312.54 300.5,-307.21 305.83,-301.88 311.17,-301.88"/>
<text xml:space="preserve" text-anchor="start" x="331.5" y="-315.25" font-family="Helvetica,sans-Serif" font-size="10.00" fill="#1e1b4b">Photon Indexer</text>
<path fill="#eef2ff" stroke="none" d="M311.17,-263.88C311.17,-263.88 417.83,-263.88 417.83,-263.88 423.17,-263.88 428.5,-269.21 428.5,-274.54 428.5,-274.54 428.5,-285.21 428.5,-285.21 428.5,-290.54 423.17,-295.88 417.83,-295.88 417.83,-295.88 311.17,-295.88 311.17,-295.88 305.83,-295.88 300.5,-290.54 300.5,-285.21 300.5,-285.21 300.5,-274.54 300.5,-274.54 300.5,-269.21 305.83,-263.88 311.17,-263.88"/>
<path fill="none" stroke="#6366f1" d="M311.17,-263.88C311.17,-263.88 417.83,-263.88 417.83,-263.88 423.17,-263.88 428.5,-269.21 428.5,-274.54 428.5,-274.54 428.5,-285.21 428.5,-285.21 428.5,-290.54 423.17,-295.88 417.83,-295.88 417.83,-295.88 311.17,-295.88 311.17,-295.88 305.83,-295.88 300.5,-290.54 300.5,-285.21 300.5,-285.21 300.5,-274.54 300.5,-274.54 300.5,-269.21 305.83,-263.88 311.17,-263.88"/>
<text xml:space="preserve" text-anchor="start" x="310.12" y="-277.25" font-family="Helvetica,sans-Serif" font-size="10.00" fill="#1e1b4b">Pocket RPC with auditor</text>
<path fill="#eef2ff" stroke="none" d="M311.17,-225.88C311.17,-225.88 417.83,-225.88 417.83,-225.88 423.17,-225.88 428.5,-231.21 428.5,-236.54 428.5,-236.54 428.5,-247.21 428.5,-247.21 428.5,-252.54 423.17,-257.88 417.83,-257.88 417.83,-257.88 311.17,-257.88 311.17,-257.88 305.83,-257.88 300.5,-252.54 300.5,-247.21 300.5,-247.21 300.5,-236.54 300.5,-236.54 300.5,-231.21 305.83,-225.88 311.17,-225.88"/>
<path fill="none" stroke="#6366f1" d="M311.17,-225.88C311.17,-225.88 417.83,-225.88 417.83,-225.88 423.17,-225.88 428.5,-231.21 428.5,-236.54 428.5,-236.54 428.5,-247.21 428.5,-247.21 428.5,-252.54 423.17,-257.88 417.83,-257.88 417.83,-257.88 311.17,-257.88 311.17,-257.88 305.83,-257.88 300.5,-252.54 300.5,-247.21 300.5,-247.21 300.5,-236.54 300.5,-236.54 300.5,-231.21 305.83,-225.88 311.17,-225.88"/>
<text xml:space="preserve" text-anchor="start" x="350.25" y="-239.25" font-family="Helvetica,sans-Serif" font-size="10.00" fill="#1e1b4b">Prover</text>
<path fill="#eef2ff" stroke="none" d="M311.17,-187.88C311.17,-187.88 417.83,-187.88 417.83,-187.88 423.17,-187.88 428.5,-193.21 428.5,-198.54 428.5,-198.54 428.5,-209.21 428.5,-209.21 428.5,-214.54 423.17,-219.88 417.83,-219.88 417.83,-219.88 311.17,-219.88 311.17,-219.88 305.83,-219.88 300.5,-214.54 300.5,-209.21 300.5,-209.21 300.5,-198.54 300.5,-198.54 300.5,-193.21 305.83,-187.88 311.17,-187.88"/>
<path fill="none" stroke="#6366f1" d="M311.17,-187.88C311.17,-187.88 417.83,-187.88 417.83,-187.88 423.17,-187.88 428.5,-193.21 428.5,-198.54 428.5,-198.54 428.5,-209.21 428.5,-209.21 428.5,-214.54 423.17,-219.88 417.83,-219.88 417.83,-219.88 311.17,-219.88 311.17,-219.88 305.83,-219.88 300.5,-214.54 300.5,-209.21 300.5,-209.21 300.5,-198.54 300.5,-198.54 300.5,-193.21 305.83,-187.88 311.17,-187.88"/>
<text xml:space="preserve" text-anchor="start" x="347.62" y="-201.25" font-family="Helvetica,sans-Serif" font-size="10.00" fill="#1e1b4b">Relayer</text>
<path fill="none" stroke="#cbd5e1" d="M305.5,-180.88C305.5,-180.88 423.5,-180.88 423.5,-180.88 429.5,-180.88 435.5,-186.88 435.5,-192.88 435.5,-192.88 435.5,-352.88 435.5,-352.88 435.5,-358.88 429.5,-364.88 423.5,-364.88 423.5,-364.88 305.5,-364.88 305.5,-364.88 299.5,-364.88 293.5,-358.88 293.5,-352.88 293.5,-352.88 293.5,-192.88 293.5,-192.88 293.5,-186.88 299.5,-180.88 305.5,-180.88"/>
</g>
<!-- Client&#45;&gt;RPC -->
<g id="edge1" class="edge">
<title>Client:e&#45;&gt;RPC:w</title>
<path fill="none" stroke="#475569" stroke-width="1.1" stroke-dasharray="5,2" d="M107.52,-317.88C143.34,-317.88 252.46,-317.88 288.1,-317.88"/>
<polygon fill="#475569" stroke="#475569" stroke-width="1.1" points="107.66,-314.38 97.66,-317.88 107.66,-321.38 107.66,-314.38"/>
<polygon fill="#475569" stroke="#475569" stroke-width="1.1" points="287.84,-321.38 297.84,-317.88 287.84,-314.38 287.84,-321.38"/>
<text xml:space="preserve" text-anchor="middle" x="197.75" y="-319.62" font-family="Helvetica,sans-Serif" font-size="10.00" fill="#334155">fetch encrypted UTXOs</text>
</g>
<!-- Client&#45;&gt;RPC -->
<g id="edge2" class="edge">
<title>Client:e&#45;&gt;RPC:w</title>
<path fill="none" stroke="#475569" stroke-width="1.1" stroke-dasharray="5,2" d="M107.52,-279.88C143.34,-279.88 252.46,-279.88 288.1,-279.88"/>
<polygon fill="#475569" stroke="#475569" stroke-width="1.1" points="107.66,-276.38 97.66,-279.88 107.66,-283.38 107.66,-276.38"/>
<polygon fill="#475569" stroke="#475569" stroke-width="1.1" points="287.84,-283.38 297.84,-279.88 287.84,-276.38 287.84,-283.38"/>
<text xml:space="preserve" text-anchor="middle" x="197.75" y="-281.62" font-family="Helvetica,sans-Serif" font-size="10.00" fill="#334155">fetch decrypted UTXOs</text>
</g>
<!-- Client&#45;&gt;RPC -->
<g id="edge3" class="edge">
<title>Client:e&#45;&gt;RPC:w</title>
<path fill="none" stroke="#475569" stroke-width="1.1" stroke-dasharray="5,2" d="M107.52,-241.88C143.34,-241.88 252.46,-241.88 288.1,-241.88"/>
<polygon fill="#475569" stroke="#475569" stroke-width="1.1" points="107.66,-238.38 97.66,-241.88 107.66,-245.38 107.66,-238.38"/>
<polygon fill="#475569" stroke="#475569" stroke-width="1.1" points="287.84,-245.38 297.84,-241.88 287.84,-238.38 287.84,-245.38"/>
<text xml:space="preserve" text-anchor="middle" x="197.75" y="-243.62" font-family="Helvetica,sans-Serif" font-size="10.00" fill="#334155">fetch proofs</text>
</g>
<!-- Client&#45;&gt;RPC -->
<g id="edge4" class="edge">
<title>Client:e&#45;&gt;RPC:w</title>
<path fill="none" stroke="#475569" stroke-width="1.1" d="M96,-203.88C96,-203.88 244.93,-203.88 287.98,-203.88"/>
<polygon fill="#475569" stroke="#475569" stroke-width="1.1" points="287.84,-207.38 297.84,-203.88 287.84,-200.38 287.84,-207.38"/>
<text xml:space="preserve" text-anchor="middle" x="197.75" y="-205.62" font-family="Helvetica,sans-Serif" font-size="10.00" fill="#334155">send transaction</text>
</g>
<!-- Solana -->
<g id="node4" class="node">
<title>Solana</title>
<path fill="#eef2ff" stroke="none" stroke-width="1.2" d="M1163,-293.75C1163,-293.75 625,-293.75 625,-293.75 619,-293.75 613,-287.75 613,-281.75 613,-281.75 613,-12 613,-12 613,-6 619,0 625,0 625,0 1163,0 1163,0 1169,0 1175,-6 1175,-12 1175,-12 1175,-281.75 1175,-281.75 1175,-287.75 1169,-293.75 1163,-293.75"/>
<path fill="#ffffff" stroke="none" d="M633,-4C633,-4 1155,-4 1155,-4 1161,-4 1167,-10 1167,-16 1167,-16 1167,-277.75 1167,-277.75 1167,-283.75 1161,-289.75 1155,-289.75 1155,-289.75 633,-289.75 633,-289.75 627,-289.75 621,-283.75 621,-277.75 621,-277.75 621,-16 621,-16 621,-10 627,-4 633,-4"/>
<text xml:space="preserve" text-anchor="start" x="874.88" y="-270.38" font-family="Helvetica,sans-Serif" font-size="12.00" fill="#0f172a">Solana</text>
<path fill="#eef2ff" stroke="none" d="M1032,-111C1032,-111 1148,-111 1148,-111 1154,-111 1160,-117 1160,-123 1160,-123 1160,-246.75 1160,-246.75 1160,-252.75 1154,-258.75 1148,-258.75 1148,-258.75 1032,-258.75 1032,-258.75 1026,-258.75 1020,-252.75 1020,-246.75 1020,-246.75 1020,-123 1020,-123 1020,-117 1026,-111 1032,-111"/>
<path fill="none" stroke="#6366f1" d="M1032,-111C1032,-111 1148,-111 1148,-111 1154,-111 1160,-117 1160,-123 1160,-123 1160,-246.75 1160,-246.75 1160,-252.75 1154,-258.75 1148,-258.75 1148,-258.75 1032,-258.75 1032,-258.75 1026,-258.75 1020,-252.75 1020,-246.75 1020,-246.75 1020,-123 1020,-123 1020,-117 1026,-111 1032,-111"/>
<text xml:space="preserve" text-anchor="start" x="1079.88" y="-187.88" font-family="Helvetica,sans-Serif" font-size="10.00" fill="#1e1b4b">SPP</text>
<text xml:space="preserve" text-anchor="start" x="1040.12" y="-176.62" font-family="Helvetica,sans-Serif" font-size="10.00" fill="#1e1b4b">Shielded Pool Program</text>
<path fill="#eef2ff" stroke="none" d="M638.67,-188.75C638.67,-188.75 727.33,-188.75 727.33,-188.75 732.67,-188.75 738,-194.08 738,-199.42 738,-199.42 738,-210.08 738,-210.08 738,-215.42 732.67,-220.75 727.33,-220.75 727.33,-220.75 638.67,-220.75 638.67,-220.75 633.33,-220.75 628,-215.42 628,-210.08 628,-210.08 628,-199.42 628,-199.42 628,-194.08 633.33,-188.75 638.67,-188.75"/>
<path fill="none" stroke="#6366f1" d="M638.67,-188.75C638.67,-188.75 727.33,-188.75 727.33,-188.75 732.67,-188.75 738,-194.08 738,-199.42 738,-199.42 738,-210.08 738,-210.08 738,-215.42 732.67,-220.75 727.33,-220.75 727.33,-220.75 638.67,-220.75 638.67,-220.75 633.33,-220.75 628,-215.42 628,-210.08 628,-210.08 628,-199.42 628,-199.42 628,-194.08 633.33,-188.75 638.67,-188.75"/>
<text xml:space="preserve" text-anchor="start" x="642.88" y="-202.12" font-family="Helvetica,sans-Serif" font-size="10.00" fill="#1e1b4b">ZK Swap Program</text>
<text xml:space="preserve" text-anchor="start" x="784.88" y="-201.38" font-family="Helvetica,sans-Serif" font-size="10.00" fill="#475569">──────── CPI ────────▶</text>
<text xml:space="preserve" text-anchor="start" x="753" y="-157.15" font-family="Helvetica,sans-Serif" font-size="28.00" fill="#475569">↘</text>
<text xml:space="preserve" text-anchor="start" x="780.75" y="-157.15" font-family="Helvetica,sans-Serif" font-size="10.00" fill="#475569"> CPI</text>
<path fill="#eef2ff" stroke="none" d="M827.25,-149C827.25,-149 930.75,-149 930.75,-149 936.38,-149 942,-154.62 942,-160.25 942,-160.25 942,-171.5 942,-171.5 942,-177.12 936.38,-182.75 930.75,-182.75 930.75,-182.75 827.25,-182.75 827.25,-182.75 821.62,-182.75 816,-177.12 816,-171.5 816,-171.5 816,-160.25 816,-160.25 816,-154.62 821.62,-149 827.25,-149"/>
<path fill="none" stroke="#6366f1" d="M827.25,-149C827.25,-149 930.75,-149 930.75,-149 936.38,-149 942,-154.62 942,-160.25 942,-160.25 942,-171.5 942,-171.5 942,-177.12 936.38,-182.75 930.75,-182.75 930.75,-182.75 827.25,-182.75 827.25,-182.75 821.62,-182.75 816,-177.12 816,-171.5 816,-171.5 816,-160.25 816,-160.25 816,-154.62 821.62,-149 827.25,-149"/>
<text xml:space="preserve" text-anchor="start" x="841.5" y="-163.25" font-family="Helvetica,sans-Serif" font-size="10.00" fill="#1e1b4b">Policy Program 1</text>
<text xml:space="preserve" text-anchor="start" x="966" y="-162.5" font-family="Helvetica,sans-Serif" font-size="10.00" fill="#475569">CPI →</text>
<path fill="#eef2ff" stroke="none" d="M826.67,-111C826.67,-111 931.33,-111 931.33,-111 936.67,-111 942,-116.33 942,-121.67 942,-121.67 942,-132.33 942,-132.33 942,-137.67 936.67,-143 931.33,-143 931.33,-143 826.67,-143 826.67,-143 821.33,-143 816,-137.67 816,-132.33 816,-132.33 816,-121.67 816,-121.67 816,-116.33 821.33,-111 826.67,-111"/>
<path fill="none" stroke="#6366f1" d="M826.67,-111C826.67,-111 931.33,-111 931.33,-111 936.67,-111 942,-116.33 942,-121.67 942,-121.67 942,-132.33 942,-132.33 942,-137.67 936.67,-143 931.33,-143 931.33,-143 826.67,-143 826.67,-143 821.33,-143 816,-137.67 816,-132.33 816,-132.33 816,-121.67 816,-121.67 816,-116.33 821.33,-111 826.67,-111"/>
<text xml:space="preserve" text-anchor="start" x="840.38" y="-124.38" font-family="Helvetica,sans-Serif" font-size="10.00" fill="#1e1b4b">Policy Program N</text>
<text xml:space="preserve" text-anchor="start" x="966" y="-123.62" font-family="Helvetica,sans-Serif" font-size="10.00" fill="#475569">CPI →</text>
<path fill="#e0f2fe" stroke="none" d="M1030.67,-73C1030.67,-73 1149.33,-73 1149.33,-73 1154.67,-73 1160,-78.33 1160,-83.67 1160,-83.67 1160,-94.33 1160,-94.33 1160,-99.67 1154.67,-105 1149.33,-105 1149.33,-105 1030.67,-105 1030.67,-105 1025.33,-105 1020,-99.67 1020,-94.33 1020,-94.33 1020,-83.67 1020,-83.67 1020,-78.33 1025.33,-73 1030.67,-73"/>
<path fill="none" stroke="#0284c7" d="M1030.67,-73C1030.67,-73 1149.33,-73 1149.33,-73 1154.67,-73 1160,-78.33 1160,-83.67 1160,-83.67 1160,-94.33 1160,-94.33 1160,-99.67 1154.67,-105 1149.33,-105 1149.33,-105 1030.67,-105 1030.67,-105 1025.33,-105 1020,-99.67 1020,-94.33 1020,-94.33 1020,-83.67 1020,-83.67 1020,-78.33 1025.33,-73 1030.67,-73"/>
<text xml:space="preserve" text-anchor="start" x="1060.75" y="-86.38" font-family="Helvetica,sans-Serif" font-size="10.00" fill="#0c4a6e">SPL interface</text>
<path fill="#e0f2fe" stroke="none" d="M1032,-11C1032,-11 1148,-11 1148,-11 1154,-11 1160,-17 1160,-23 1160,-23 1160,-55 1160,-55 1160,-61 1154,-67 1148,-67 1148,-67 1032,-67 1032,-67 1026,-67 1020,-61 1020,-55 1020,-55 1020,-23 1020,-23 1020,-17 1026,-11 1032,-11"/>
<path fill="none" stroke="#0284c7" d="M1032,-11C1032,-11 1148,-11 1148,-11 1154,-11 1160,-17 1160,-23 1160,-23 1160,-55 1160,-55 1160,-61 1154,-67 1148,-67 1148,-67 1032,-67 1032,-67 1026,-67 1020,-61 1020,-55 1020,-55 1020,-23 1020,-23 1020,-17 1026,-11 1032,-11"/>
<text xml:space="preserve" text-anchor="start" x="1058.88" y="-53.25" font-family="Helvetica,sans-Serif" font-size="10.00" fill="#0c4a6e">Tree accounts</text>
<text xml:space="preserve" text-anchor="start" x="1066.38" y="-42" font-family="Helvetica,sans-Serif" font-size="10.00" fill="#0c4a6e">UTXO tree</text>
<text xml:space="preserve" text-anchor="start" x="1064.88" y="-30.75" font-family="Helvetica,sans-Serif" font-size="10.00" fill="#0c4a6e">nullifier tree</text>
<text xml:space="preserve" text-anchor="start" x="1060" y="-19.5" font-family="Helvetica,sans-Serif" font-size="10.00" fill="#0c4a6e">nullifier queue</text>
<path fill="none" stroke="#cbd5e1" d="M633,-4C633,-4 1155,-4 1155,-4 1161,-4 1167,-10 1167,-16 1167,-16 1167,-277.75 1167,-277.75 1167,-283.75 1161,-289.75 1155,-289.75 1155,-289.75 633,-289.75 633,-289.75 627,-289.75 621,-283.75 621,-277.75 621,-277.75 621,-16 621,-16 621,-10 627,-4 633,-4"/>
</g>
<!-- RPC&#45;&gt;Solana -->
<g id="edge5" class="edge">
<title>RPC:ne&#45;&gt;Solana:nw</title>
<path fill="none" stroke="#475569" stroke-width="1.1" d="M429.5,-219.88C429.5,-219.88 925.2,-252.56 1007.49,-257.99"/>
<polygon fill="#475569" stroke="#475569" stroke-width="1.1" points="1007.13,-261.47 1017.34,-258.64 1007.59,-254.49 1007.13,-261.47"/>
<text xml:space="preserve" text-anchor="middle" x="528.25" y="-231.02" font-family="Helvetica,sans-Serif" font-size="10.00" fill="#334155">submit tx</text>
</g>
<!-- RPC&#45;&gt;Solana -->
<g id="edge6" class="edge">
<title>RPC:e&#45;&gt;Solana:w</title>
<path fill="none" stroke="#475569" stroke-width="1.1" d="M429.5,-203.88C429.5,-203.88 573.38,-204.51 615.53,-204.7"/>
<polygon fill="#475569" stroke="#475569" stroke-width="1.1" points="615.32,-208.2 625.34,-204.74 615.35,-201.2 615.32,-208.2"/>
</g>
<!-- RPC&#45;&gt;Solana -->
<g id="edge7" class="edge">
<title>RPC:se&#45;&gt;Solana:w</title>
<path fill="none" stroke="#475569" stroke-width="1.1" d="M429.5,-187.88C429.5,-187.88 740.67,-138.74 803.88,-128.76"/>
<polygon fill="#475569" stroke="#475569" stroke-width="1.1" points="804.02,-132.28 813.36,-127.26 802.93,-125.36 804.02,-132.28"/>
</g>
<!-- Forester -->
<g id="node3" class="node">
<title>Forester</title>
<path fill="#eef2ff" stroke="#6366f1" stroke-width="1.2" d="M380.75,-57.88C380.75,-57.88 348.25,-57.88 348.25,-57.88 342.25,-57.88 336.25,-51.88 336.25,-45.88 336.25,-45.88 336.25,-33.88 336.25,-33.88 336.25,-27.88 342.25,-21.88 348.25,-21.88 348.25,-21.88 380.75,-21.88 380.75,-21.88 386.75,-21.88 392.75,-27.88 392.75,-33.88 392.75,-33.88 392.75,-45.88 392.75,-45.88 392.75,-51.88 386.75,-57.88 380.75,-57.88"/>
<text xml:space="preserve" text-anchor="middle" x="364.5" y="-35.42" font-family="Helvetica,sans-Serif" font-size="11.00" fill="#1e1b4b">Forester</text>
</g>
<!-- Forester&#45;&gt;Solana -->
<g id="edge8" class="edge">
<title>Forester&#45;&gt;Solana:w</title>
<path fill="none" stroke="#475569" stroke-width="1.1" d="M393.16,-39.84C506.37,-39.69 931.94,-39.12 1007.49,-39.02"/>
<polygon fill="#475569" stroke="#475569" stroke-width="1.1" points="1007.34,-42.52 1017.34,-39 1007.33,-35.52 1007.34,-42.52"/>
<text xml:space="preserve" text-anchor="middle" x="528.25" y="-41.46" font-family="Helvetica,sans-Serif" font-size="10.00" fill="#334155">process nullifier queue</text>
</g>
</g>
</svg>
