<?xml version="1.0" encoding="UTF-8" standalone="no"?>
<!DOCTYPE svg PUBLIC "-//W3C//DTD SVG 1.1//EN"
 "http://www.w3.org/Graphics/SVG/1.1/DTD/svg11.dtd">
<!-- Generated by graphviz version 14.1.5 (20260411.2331)
 -->
<!-- Title: G Pages: 1 -->
<svg width="1066pt" height="371pt"
 viewBox="0.00 0.00 1066.00 371.00" xmlns="http://www.w3.org/2000/svg" xmlns:xlink="http://www.w3.org/1999/xlink">
<g id="graph0" class="graph" transform="scale(1 1) rotate(0) translate(4 367)">
<title>G</title>
<polygon fill="#f8fafc" stroke="none" points="-4,4 -4,-367 1061.75,-367 1061.75,4 -4,4"/>
<!-- Client -->
<g id="node1" class="node">
<title>Client</title>
<path fill="#eef2ff" stroke="none" stroke-width="1.2" d="M168,-363C168,-363 12,-363 12,-363 6,-363 0,-357 0,-351 0,-351 0,-241 0,-241 0,-235 6,-229 12,-229 12,-229 168,-229 168,-229 174,-229 180,-235 180,-241 180,-241 180,-351 180,-351 180,-357 174,-363 168,-363"/>
<path fill="#eef2ff" stroke="none" d="M20,-233C20,-233 160,-233 160,-233 166,-233 172,-239 172,-245 172,-245 172,-347 172,-347 172,-353 166,-359 160,-359 160,-359 20,-359 20,-359 14,-359 8,-353 8,-347 8,-347 8,-245 8,-245 8,-239 14,-233 20,-233"/>
<text xml:space="preserve" text-anchor="start" x="44.25" y="-338.98" font-family="Helvetica,sans-Serif" font-weight="bold" font-size="12.00" fill="#1e1b4b">Smart Accounts</text>
<path fill="none" stroke="#6366f1" d="M20,-233C20,-233 160,-233 160,-233 166,-233 172,-239 172,-245 172,-245 172,-347 172,-347 172,-353 166,-359 160,-359 160,-359 20,-359 20,-359 14,-359 8,-353 8,-347 8,-347 8,-245 8,-245 8,-239 14,-233 20,-233"/>
</g>
<!-- RPC -->
<g id="node2" class="node">
<title>RPC</title>
<path fill="#eef2ff" stroke="none" stroke-width="1.2" d="M508.25,-363C508.25,-363 332.25,-363 332.25,-363 326.25,-363 320.25,-357 320.25,-351 320.25,-351 320.25,-205 320.25,-205 320.25,-199 326.25,-193 332.25,-193 332.25,-193 508.25,-193 508.25,-193 514.25,-193 520.25,-199 520.25,-205 520.25,-205 520.25,-351 520.25,-351 520.25,-357 514.25,-363 508.25,-363"/>
<path fill="#ffffff" stroke="none" d="M340.25,-197C340.25,-197 500.25,-197 500.25,-197 506.25,-197 512.25,-203 512.25,-209 512.25,-209 512.25,-347 512.25,-347 512.25,-353 506.25,-359 500.25,-359 500.25,-359 340.25,-359 340.25,-359 334.25,-359 328.25,-353 328.25,-347 328.25,-347 328.25,-209 328.25,-209 328.25,-203 334.25,-197 340.25,-197"/>
<text xml:space="preserve" text-anchor="start" x="374.5" y="-339.62" font-family="Helvetica,sans-Serif" font-size="12.00" fill="#0f172a">Squads Backend</text>
<path fill="#eef2ff" stroke="none" d="M345.25,-276C345.25,-276 495.25,-276 495.25,-276 500.25,-276 505.25,-281 505.25,-286 505.25,-286 505.25,-296 505.25,-296 505.25,-301 500.25,-306 495.25,-306 495.25,-306 345.25,-306 345.25,-306 340.25,-306 335.25,-301 335.25,-296 335.25,-296 335.25,-286 335.25,-286 335.25,-281 340.25,-276 345.25,-276"/>
<path fill="none" stroke="#6366f1" d="M345.25,-276C345.25,-276 495.25,-276 495.25,-276 500.25,-276 505.25,-281 505.25,-286 505.25,-286 505.25,-296 505.25,-296 505.25,-301 500.25,-306 495.25,-306 495.25,-306 345.25,-306 345.25,-306 340.25,-306 335.25,-301 335.25,-296 335.25,-296 335.25,-286 335.25,-286 335.25,-281 340.25,-276 345.25,-276"/>
<text xml:space="preserve" text-anchor="start" x="368.12" y="-288.38" font-family="Helvetica,sans-Serif" font-size="10.00" fill="#1e1b4b">Indexer with auditor key</text>
<path fill="#eef2ff" stroke="none" d="M345.25,-240C345.25,-240 495.25,-240 495.25,-240 500.25,-240 505.25,-245 505.25,-250 505.25,-250 505.25,-260 505.25,-260 505.25,-265 500.25,-270 495.25,-270 495.25,-270 345.25,-270 345.25,-270 340.25,-270 335.25,-265 335.25,-260 335.25,-260 335.25,-250 335.25,-250 335.25,-245 340.25,-240 345.25,-240"/>
<path fill="none" stroke="#6366f1" d="M345.25,-240C345.25,-240 495.25,-240 495.25,-240 500.25,-240 505.25,-245 505.25,-250 505.25,-250 505.25,-260 505.25,-260 505.25,-265 500.25,-270 495.25,-270 495.25,-270 345.25,-270 345.25,-270 340.25,-270 335.25,-265 335.25,-260 335.25,-260 335.25,-250 335.25,-250 335.25,-245 340.25,-240 345.25,-240"/>
<text xml:space="preserve" text-anchor="start" x="378.62" y="-252.38" font-family="Helvetica,sans-Serif" font-size="10.00" fill="#1e1b4b">Co&#45;signer &amp; Prover</text>
<path fill="#eef2ff" stroke="none" d="M345.25,-204C345.25,-204 495.25,-204 495.25,-204 500.25,-204 505.25,-209 505.25,-214 505.25,-214 505.25,-224 505.25,-224 505.25,-229 500.25,-234 495.25,-234 495.25,-234 345.25,-234 345.25,-234 340.25,-234 335.25,-229 335.25,-224 335.25,-224 335.25,-214 335.25,-214 335.25,-209 340.25,-204 345.25,-204"/>
<path fill="none" stroke="#6366f1" d="M345.25,-204C345.25,-204 495.25,-204 495.25,-204 500.25,-204 505.25,-209 505.25,-214 505.25,-214 505.25,-224 505.25,-224 505.25,-229 500.25,-234 495.25,-234 495.25,-234 345.25,-234 345.25,-234 340.25,-234 335.25,-229 335.25,-224 335.25,-224 335.25,-214 335.25,-214 335.25,-209 340.25,-204 345.25,-204"/>
<text xml:space="preserve" text-anchor="start" x="389.5" y="-216.38" font-family="Helvetica,sans-Serif" font-size="10.00" fill="#1e1b4b">Merge service</text>
<path fill="none" stroke="#cbd5e1" d="M340.25,-197C340.25,-197 500.25,-197 500.25,-197 506.25,-197 512.25,-203 512.25,-209 512.25,-209 512.25,-347 512.25,-347 512.25,-353 506.25,-359 500.25,-359 500.25,-359 340.25,-359 340.25,-359 334.25,-359 328.25,-353 328.25,-347 328.25,-347 328.25,-209 328.25,-209 328.25,-203 334.25,-197 340.25,-197"/>
</g>
<!-- Client&#45;&gt;RPC -->
<g id="edge1" class="edge">
<title>Client:e&#45;&gt;RPC:w</title>
<path fill="none" stroke="#475569" stroke-width="1.1" stroke-dasharray="5,2" d="M177.56,-291C208.3,-291 291.78,-291 322.6,-291"/>
<polygon fill="#475569" stroke="#475569" stroke-width="1.1" points="177.66,-287.5 167.66,-291 177.66,-294.5 177.66,-287.5"/>
<polygon fill="#475569" stroke="#475569" stroke-width="1.1" points="322.59,-294.5 332.59,-291 322.59,-287.5 322.59,-294.5"/>
<text xml:space="preserve" text-anchor="middle" x="250.12" y="-292.75" font-family="Helvetica,sans-Serif" font-size="10.00" fill="#334155">get_balance</text>
</g>
<!-- Client&#45;&gt;RPC -->
<g id="edge2" class="edge">
<title>Client:e&#45;&gt;RPC:w</title>
<path fill="none" stroke="#475569" stroke-width="1.1" d="M177.56,-255C208.3,-255 291.78,-255 322.6,-255"/>
<polygon fill="#475569" stroke="#475569" stroke-width="1.1" points="177.66,-251.5 167.66,-255 177.66,-258.5 177.66,-251.5"/>
<polygon fill="#475569" stroke="#475569" stroke-width="1.1" points="322.59,-258.5 332.59,-255 322.59,-251.5 322.59,-258.5"/>
<text xml:space="preserve" text-anchor="middle" x="250.12" y="-256.75" font-family="Helvetica,sans-Serif" font-size="10.00" fill="#334155">send tx / proofs</text>
</g>
<!-- Solana -->
<g id="node3" class="node">
<title>Solana</title>
<path fill="#eef2ff" stroke="none" stroke-width="1.2" d="M1045.75,-292C1045.75,-292 671.75,-292 671.75,-292 665.75,-292 659.75,-286 659.75,-280 659.75,-280 659.75,-12 659.75,-12 659.75,-6 665.75,0 671.75,0 671.75,0 1045.75,0 1045.75,0 1051.75,0 1057.75,-6 1057.75,-12 1057.75,-12 1057.75,-280 1057.75,-280 1057.75,-286 1051.75,-292 1045.75,-292"/>
<path fill="#ffffff" stroke="none" d="M679.75,-4C679.75,-4 1037.75,-4 1037.75,-4 1043.75,-4 1049.75,-10 1049.75,-16 1049.75,-16 1049.75,-276 1049.75,-276 1049.75,-282 1043.75,-288 1037.75,-288 1037.75,-288 679.75,-288 679.75,-288 673.75,-288 667.75,-282 667.75,-276 667.75,-276 667.75,-16 667.75,-16 667.75,-10 673.75,-4 679.75,-4"/>
<text xml:space="preserve" text-anchor="start" x="839.62" y="-268.62" font-family="Helvetica,sans-Serif" font-size="12.00" fill="#0f172a">Solana</text>
<path fill="#eef2ff" stroke="none" d="M686.75,-217C686.75,-217 812.75,-217 812.75,-217 818.75,-217 824.75,-223 824.75,-229 824.75,-229 824.75,-245 824.75,-245 824.75,-251 818.75,-257 812.75,-257 812.75,-257 686.75,-257 686.75,-257 680.75,-257 674.75,-251 674.75,-245 674.75,-245 674.75,-229 674.75,-229 674.75,-223 680.75,-217 686.75,-217"/>
<path fill="none" stroke="#6366f1" d="M686.75,-217C686.75,-217 812.75,-217 812.75,-217 818.75,-217 824.75,-223 824.75,-229 824.75,-229 824.75,-245 824.75,-245 824.75,-251 818.75,-257 812.75,-257 812.75,-257 686.75,-257 686.75,-257 680.75,-257 674.75,-251 674.75,-245 674.75,-245 674.75,-229 674.75,-229 674.75,-223 680.75,-217 686.75,-217"/>
<text xml:space="preserve" text-anchor="start" x="701" y="-234.38" font-family="Helvetica,sans-Serif" font-size="10.00" fill="#1e1b4b">Squads Zone Program</text>
<text xml:space="preserve" text-anchor="start" x="843.75" y="-233.62" font-family="Helvetica,sans-Serif" font-size="10.00" fill="#475569">CPI →</text>
<path fill="#eef2ff" stroke="none" d="M904.75,-109C904.75,-109 1030.75,-109 1030.75,-109 1036.75,-109 1042.75,-115 1042.75,-121 1042.75,-121 1042.75,-245 1042.75,-245 1042.75,-251 1036.75,-257 1030.75,-257 1030.75,-257 904.75,-257 904.75,-257 898.75,-257 892.75,-251 892.75,-245 892.75,-245 892.75,-121 892.75,-121 892.75,-115 898.75,-109 904.75,-109"/>
<path fill="none" stroke="#6366f1" d="M904.75,-109C904.75,-109 1030.75,-109 1030.75,-109 1036.75,-109 1042.75,-115 1042.75,-121 1042.75,-121 1042.75,-245 1042.75,-245 1042.75,-251 1036.75,-257 1030.75,-257 1030.75,-257 904.75,-257 904.75,-257 898.75,-257 892.75,-251 892.75,-245 892.75,-245 892.75,-121 892.75,-121 892.75,-115 898.75,-109 904.75,-109"/>
<text xml:space="preserve" text-anchor="start" x="914.88" y="-186" font-family="Helvetica,sans-Serif" font-size="10.00" fill="#1e1b4b">Solana Privacy Program</text>
<text xml:space="preserve" text-anchor="start" x="954.62" y="-174.75" font-family="Helvetica,sans-Serif" font-size="10.00" fill="#1e1b4b">(SPP)</text>
<path fill="#e0f2fe" stroke="none" d="M684.75,-181C684.75,-181 814.75,-181 814.75,-181 819.75,-181 824.75,-186 824.75,-191 824.75,-191 824.75,-201 824.75,-201 824.75,-206 819.75,-211 814.75,-211 814.75,-211 684.75,-211 684.75,-211 679.75,-211 674.75,-206 674.75,-201 674.75,-201 674.75,-191 674.75,-191 674.75,-186 679.75,-181 684.75,-181"/>
<path fill="none" stroke="#0284c7" d="M684.75,-181C684.75,-181 814.75,-181 814.75,-181 819.75,-181 824.75,-186 824.75,-191 824.75,-191 824.75,-201 824.75,-201 824.75,-206 819.75,-211 814.75,-211 814.75,-211 684.75,-211 684.75,-211 679.75,-211 674.75,-206 674.75,-201 674.75,-201 674.75,-191 674.75,-191 674.75,-186 679.75,-181 684.75,-181"/>
<text xml:space="preserve" text-anchor="start" x="724.25" y="-193.38" font-family="Helvetica,sans-Serif" font-size="10.00" fill="#0c4a6e">Zone config</text>
<path fill="#e0f2fe" stroke="none" d="M684.75,-145C684.75,-145 814.75,-145 814.75,-145 819.75,-145 824.75,-150 824.75,-155 824.75,-155 824.75,-165 824.75,-165 824.75,-170 819.75,-175 814.75,-175 814.75,-175 684.75,-175 684.75,-175 679.75,-175 674.75,-170 674.75,-165 674.75,-165 674.75,-155 674.75,-155 674.75,-150 679.75,-145 684.75,-145"/>
<path fill="none" stroke="#0284c7" d="M684.75,-145C684.75,-145 814.75,-145 814.75,-145 819.75,-145 824.75,-150 824.75,-155 824.75,-155 824.75,-165 824.75,-165 824.75,-170 819.75,-175 814.75,-175 814.75,-175 684.75,-175 684.75,-175 679.75,-175 674.75,-170 674.75,-165 674.75,-165 674.75,-155 674.75,-155 674.75,-150 679.75,-145 684.75,-145"/>
<text xml:space="preserve" text-anchor="start" x="701.75" y="-157.38" font-family="Helvetica,sans-Serif" font-size="10.00" fill="#0c4a6e">Viewing key accounts</text>
<path fill="#e0f2fe" stroke="none" d="M684.75,-109C684.75,-109 814.75,-109 814.75,-109 819.75,-109 824.75,-114 824.75,-119 824.75,-119 824.75,-129 824.75,-129 824.75,-134 819.75,-139 814.75,-139 814.75,-139 684.75,-139 684.75,-139 679.75,-139 674.75,-134 674.75,-129 674.75,-129 674.75,-119 674.75,-119 674.75,-114 679.75,-109 684.75,-109"/>
<path fill="none" stroke="#0284c7" d="M684.75,-109C684.75,-109 814.75,-109 814.75,-109 819.75,-109 824.75,-114 824.75,-119 824.75,-119 824.75,-129 824.75,-129 824.75,-134 819.75,-139 814.75,-139 814.75,-139 684.75,-139 684.75,-139 679.75,-139 674.75,-134 674.75,-129 674.75,-129 674.75,-119 674.75,-119 674.75,-114 679.75,-109 684.75,-109"/>
<text xml:space="preserve" text-anchor="start" x="714.12" y="-121.38" font-family="Helvetica,sans-Serif" font-size="10.00" fill="#0c4a6e">Proposal buffers</text>
<path fill="#e0f2fe" stroke="none" d="M902.75,-73C902.75,-73 1032.75,-73 1032.75,-73 1037.75,-73 1042.75,-78 1042.75,-83 1042.75,-83 1042.75,-93 1042.75,-93 1042.75,-98 1037.75,-103 1032.75,-103 1032.75,-103 902.75,-103 902.75,-103 897.75,-103 892.75,-98 892.75,-93 892.75,-93 892.75,-83 892.75,-83 892.75,-78 897.75,-73 902.75,-73"/>
<path fill="none" stroke="#0284c7" d="M902.75,-73C902.75,-73 1032.75,-73 1032.75,-73 1037.75,-73 1042.75,-78 1042.75,-83 1042.75,-83 1042.75,-93 1042.75,-93 1042.75,-98 1037.75,-103 1032.75,-103 1032.75,-103 902.75,-103 902.75,-103 897.75,-103 892.75,-98 892.75,-93 892.75,-93 892.75,-83 892.75,-83 892.75,-78 897.75,-73 902.75,-73"/>
<text xml:space="preserve" text-anchor="start" x="938.5" y="-85.38" font-family="Helvetica,sans-Serif" font-size="10.00" fill="#0c4a6e">SPL interface</text>
<path fill="#e0f2fe" stroke="none" d="M904.75,-11C904.75,-11 1030.75,-11 1030.75,-11 1036.75,-11 1042.75,-17 1042.75,-23 1042.75,-23 1042.75,-55 1042.75,-55 1042.75,-61 1036.75,-67 1030.75,-67 1030.75,-67 904.75,-67 904.75,-67 898.75,-67 892.75,-61 892.75,-55 892.75,-55 892.75,-23 892.75,-23 892.75,-17 898.75,-11 904.75,-11"/>
<path fill="none" stroke="#0284c7" d="M904.75,-11C904.75,-11 1030.75,-11 1030.75,-11 1036.75,-11 1042.75,-17 1042.75,-23 1042.75,-23 1042.75,-55 1042.75,-55 1042.75,-61 1036.75,-67 1030.75,-67 1030.75,-67 904.75,-67 904.75,-67 898.75,-67 892.75,-61 892.75,-55 892.75,-55 892.75,-23 892.75,-23 892.75,-17 898.75,-11 904.75,-11"/>
<text xml:space="preserve" text-anchor="start" x="936.62" y="-53.25" font-family="Helvetica,sans-Serif" font-size="10.00" fill="#0c4a6e">Tree accounts</text>
<text xml:space="preserve" text-anchor="start" x="944.12" y="-42" font-family="Helvetica,sans-Serif" font-size="10.00" fill="#0c4a6e">UTXO tree</text>
<text xml:space="preserve" text-anchor="start" x="942.62" y="-30.75" font-family="Helvetica,sans-Serif" font-size="10.00" fill="#0c4a6e">nullifier tree</text>
<text xml:space="preserve" text-anchor="start" x="937.75" y="-19.5" font-family="Helvetica,sans-Serif" font-size="10.00" fill="#0c4a6e">nullifier queue</text>
<path fill="none" stroke="#cbd5e1" d="M679.75,-4C679.75,-4 1037.75,-4 1037.75,-4 1043.75,-4 1049.75,-10 1049.75,-16 1049.75,-16 1049.75,-276 1049.75,-276 1049.75,-282 1043.75,-288 1037.75,-288 1037.75,-288 679.75,-288 679.75,-288 673.75,-288 667.75,-282 667.75,-276 667.75,-276 667.75,-16 667.75,-16 667.75,-10 673.75,-4 679.75,-4"/>
</g>
<!-- RPC&#45;&gt;Solana -->
<g id="edge3" class="edge">
<title>RPC:e&#45;&gt;Solana:w</title>
<path fill="none" stroke="#475569" stroke-width="1.1" d="M506.25,-255C506.25,-255 624.39,-242.3 662.24,-238.24"/>
<polygon fill="#475569" stroke="#475569" stroke-width="1.1" points="662.53,-241.73 672.09,-237.18 661.78,-234.77 662.53,-241.73"/>
<text xml:space="preserve" text-anchor="middle" x="590" y="-250.93" font-family="Helvetica,sans-Serif" font-size="10.00" fill="#334155">submit tx</text>
</g>
<!-- RPC&#45;&gt;Solana -->
<g id="edge4" class="edge">
<title>RPC:e&#45;&gt;Solana:w</title>
<path fill="none" stroke="#475569" stroke-width="1.1" d="M506.25,-219C506.25,-219 624.39,-231.7 662.24,-235.76"/>
<polygon fill="#475569" stroke="#475569" stroke-width="1.1" points="661.78,-239.23 672.09,-236.82 662.53,-232.27 661.78,-239.23"/>
<text xml:space="preserve" text-anchor="middle" x="590" y="-228.5" font-family="Helvetica,sans-Serif" font-size="10.00" fill="#334155">merge_transact</text>
</g>
</g>
</svg>
