<?xml version="1.0" encoding="UTF-8" standalone="no"?>
<!DOCTYPE svg PUBLIC "-//W3C//DTD SVG 1.1//EN"
 "http://www.w3.org/Graphics/SVG/1.1/DTD/svg11.dtd">
<!-- Generated by graphviz version 14.1.5 (20260411.2331)
 -->
<!-- Title: G Pages: 1 -->
<svg width="1086pt" height="371pt"
 viewBox="0.00 0.00 1086.00 371.00" xmlns="http://www.w3.org/2000/svg" xmlns:xlink="http://www.w3.org/1999/xlink">
<g id="graph0" class="graph" transform="scale(1 1) rotate(0) translate(4 367)">
<title>G</title>
<polygon fill="#f8fafc" stroke="none" points="-4,4 -4,-367 1081.75,-367 1081.75,4 -4,4"/>
<!-- Client -->
<g id="node1" class="node">
<title>Client</title>
<path fill="#eef2ff" stroke="none" stroke-width="1.2" d="M188,-363C188,-363 12,-363 12,-363 6,-363 0,-357 0,-351 0,-351 0,-205 0,-205 0,-199 6,-193 12,-193 12,-193 188,-193 188,-193 194,-193 200,-199 200,-205 200,-205 200,-351 200,-351 200,-357 194,-363 188,-363"/>
<path fill="#ffffff" stroke="none" d="M20,-197C20,-197 180,-197 180,-197 186,-197 192,-203 192,-209 192,-209 192,-347 192,-347 192,-353 186,-359 180,-359 180,-359 20,-359 20,-359 14,-359 8,-353 8,-347 8,-347 8,-209 8,-209 8,-203 14,-197 20,-197"/>
<text xml:space="preserve" text-anchor="start" x="83.12" y="-338.98" font-family="Helvetica,sans-Serif" font-weight="bold" font-size="12.00" fill="#1e1b4b">Users</text>
<path fill="#eef2ff" stroke="none" d="M25,-276C25,-276 175,-276 175,-276 180,-276 185,-281 185,-286 185,-286 185,-296 185,-296 185,-301 180,-306 175,-306 175,-306 25,-306 25,-306 20,-306 15,-301 15,-296 15,-296 15,-286 15,-286 15,-281 20,-276 25,-276"/>
<path fill="none" stroke="#6366f1" d="M25,-276C25,-276 175,-276 175,-276 180,-276 185,-281 185,-286 185,-286 185,-296 185,-296 185,-301 180,-306 175,-306 175,-306 25,-306 25,-306 20,-306 15,-301 15,-296 15,-296 15,-286 15,-286 15,-281 20,-276 25,-276"/>
<text xml:space="preserve" text-anchor="start" x="65.12" y="-288.38" font-family="Helvetica,sans-Serif" font-size="10.00" fill="#1e1b4b">Smart Accounts</text>
<path fill="#eef2ff" stroke="none" d="M25,-240C25,-240 175,-240 175,-240 180,-240 185,-245 185,-250 185,-250 185,-260 185,-260 185,-265 180,-270 175,-270 175,-270 25,-270 25,-270 20,-270 15,-265 15,-260 15,-260 15,-250 15,-250 15,-245 20,-240 25,-240"/>
<path fill="none" stroke="#6366f1" d="M25,-240C25,-240 175,-240 175,-240 180,-240 185,-245 185,-250 185,-250 185,-260 185,-260 185,-265 180,-270 175,-270 175,-270 25,-270 25,-270 20,-270 15,-265 15,-260 15,-260 15,-250 15,-250 15,-245 20,-240 25,-240"/>
<text xml:space="preserve" text-anchor="start" x="60.62" y="-252.38" font-family="Helvetica,sans-Serif" font-size="10.00" fill="#1e1b4b">Shielded Keypairs</text>
<path fill="#eef2ff" stroke="none" d="M25,-204C25,-204 175,-204 175,-204 180,-204 185,-209 185,-214 185,-214 185,-224 185,-224 185,-229 180,-234 175,-234 175,-234 25,-234 25,-234 20,-234 15,-229 15,-224 15,-224 15,-214 15,-214 15,-209 20,-204 25,-204"/>
<path fill="none" stroke="#6366f1" d="M25,-204C25,-204 175,-204 175,-204 180,-204 185,-209 185,-214 185,-214 185,-224 185,-224 185,-229 180,-234 175,-234 175,-234 25,-234 25,-234 20,-234 15,-229 15,-224 15,-224 15,-214 15,-214 15,-209 20,-204 25,-204"/>
<text xml:space="preserve" text-anchor="start" x="64.38" y="-216.38" font-family="Helvetica,sans-Serif" font-size="10.00" fill="#1e1b4b">Solana Keypairs</text>
<path fill="none" stroke="#6366f1" d="M20,-197C20,-197 180,-197 180,-197 186,-197 192,-203 192,-209 192,-209 192,-347 192,-347 192,-353 186,-359 180,-359 180,-359 20,-359 20,-359 14,-359 8,-353 8,-347 8,-347 8,-209 8,-209 8,-203 14,-197 20,-197"/>
</g>
<!-- RPC -->
<g id="node2" class="node">
<title>RPC</title>
<path fill="#eef2ff" stroke="none" stroke-width="1.2" d="M528.25,-363C528.25,-363 352.25,-363 352.25,-363 346.25,-363 340.25,-357 340.25,-351 340.25,-351 340.25,-205 340.25,-205 340.25,-199 346.25,-193 352.25,-193 352.25,-193 528.25,-193 528.25,-193 534.25,-193 540.25,-199 540.25,-205 540.25,-205 540.25,-351 540.25,-351 540.25,-357 534.25,-363 528.25,-363"/>
<path fill="#ffffff" stroke="none" d="M360.25,-197C360.25,-197 520.25,-197 520.25,-197 526.25,-197 532.25,-203 532.25,-209 532.25,-209 532.25,-347 532.25,-347 532.25,-353 526.25,-359 520.25,-359 520.25,-359 360.25,-359 360.25,-359 354.25,-359 348.25,-353 348.25,-347 348.25,-347 348.25,-209 348.25,-209 348.25,-203 354.25,-197 360.25,-197"/>
<text xml:space="preserve" text-anchor="start" x="394.5" y="-339.62" font-family="Helvetica,sans-Serif" font-size="12.00" fill="#0f172a">Squads Backend</text>
<path fill="#eef2ff" stroke="none" d="M365.25,-276C365.25,-276 515.25,-276 515.25,-276 520.25,-276 525.25,-281 525.25,-286 525.25,-286 525.25,-296 525.25,-296 525.25,-301 520.25,-306 515.25,-306 515.25,-306 365.25,-306 365.25,-306 360.25,-306 355.25,-301 355.25,-296 355.25,-296 355.25,-286 355.25,-286 355.25,-281 360.25,-276 365.25,-276"/>
<path fill="none" stroke="#6366f1" d="M365.25,-276C365.25,-276 515.25,-276 515.25,-276 520.25,-276 525.25,-281 525.25,-286 525.25,-286 525.25,-296 525.25,-296 525.25,-301 520.25,-306 515.25,-306 515.25,-306 365.25,-306 365.25,-306 360.25,-306 355.25,-301 355.25,-296 355.25,-296 355.25,-286 355.25,-286 355.25,-281 360.25,-276 365.25,-276"/>
<text xml:space="preserve" text-anchor="start" x="388.12" y="-288.38" font-family="Helvetica,sans-Serif" font-size="10.00" fill="#1e1b4b">Indexer with auditor key</text>
<path fill="#eef2ff" stroke="none" d="M365.25,-240C365.25,-240 515.25,-240 515.25,-240 520.25,-240 525.25,-245 525.25,-250 525.25,-250 525.25,-260 525.25,-260 525.25,-265 520.25,-270 515.25,-270 515.25,-270 365.25,-270 365.25,-270 360.25,-270 355.25,-265 355.25,-260 355.25,-260 355.25,-250 355.25,-250 355.25,-245 360.25,-240 365.25,-240"/>
<path fill="none" stroke="#6366f1" d="M365.25,-240C365.25,-240 515.25,-240 515.25,-240 520.25,-240 525.25,-245 525.25,-250 525.25,-250 525.25,-260 525.25,-260 525.25,-265 520.25,-270 515.25,-270 515.25,-270 365.25,-270 365.25,-270 360.25,-270 355.25,-265 355.25,-260 355.25,-260 355.25,-250 355.25,-250 355.25,-245 360.25,-240 365.25,-240"/>
<text xml:space="preserve" text-anchor="start" x="398.62" y="-252.38" font-family="Helvetica,sans-Serif" font-size="10.00" fill="#1e1b4b">Co&#45;signer &amp; Prover</text>
<path fill="#eef2ff" stroke="none" d="M365.25,-204C365.25,-204 515.25,-204 515.25,-204 520.25,-204 525.25,-209 525.25,-214 525.25,-214 525.25,-224 525.25,-224 525.25,-229 520.25,-234 515.25,-234 515.25,-234 365.25,-234 365.25,-234 360.25,-234 355.25,-229 355.25,-224 355.25,-224 355.25,-214 355.25,-214 355.25,-209 360.25,-204 365.25,-204"/>
<path fill="none" stroke="#6366f1" d="M365.25,-204C365.25,-204 515.25,-204 515.25,-204 520.25,-204 525.25,-209 525.25,-214 525.25,-214 525.25,-224 525.25,-224 525.25,-229 520.25,-234 515.25,-234 515.25,-234 365.25,-234 365.25,-234 360.25,-234 355.25,-229 355.25,-224 355.25,-224 355.25,-214 355.25,-214 355.25,-209 360.25,-204 365.25,-204"/>
<text xml:space="preserve" text-anchor="start" x="409.5" y="-216.38" font-family="Helvetica,sans-Serif" font-size="10.00" fill="#1e1b4b">Merge service</text>
<path fill="none" stroke="#cbd5e1" d="M360.25,-197C360.25,-197 520.25,-197 520.25,-197 526.25,-197 532.25,-203 532.25,-209 532.25,-209 532.25,-347 532.25,-347 532.25,-353 526.25,-359 520.25,-359 520.25,-359 360.25,-359 360.25,-359 354.25,-359 348.25,-353 348.25,-347 348.25,-347 348.25,-209 348.25,-209 348.25,-203 354.25,-197 360.25,-197"/>
</g>
<!-- Client&#45;&gt;RPC -->
<g id="edge1" class="edge">
<title>Client:e&#45;&gt;RPC:w</title>
<path fill="none" stroke="#475569" stroke-width="1.1" stroke-dasharray="5,2" d="M197.56,-291C228.3,-291 311.78,-291 342.6,-291"/>
<polygon fill="#475569" stroke="#475569" stroke-width="1.1" points="197.66,-287.5 187.66,-291 197.66,-294.5 197.66,-287.5"/>
<polygon fill="#475569" stroke="#475569" stroke-width="1.1" points="342.59,-294.5 352.59,-291 342.59,-287.5 342.59,-294.5"/>
<text xml:space="preserve" text-anchor="middle" x="270.12" y="-292.75" font-family="Helvetica,sans-Serif" font-size="10.00" fill="#334155">get_balance</text>
</g>
<!-- Client&#45;&gt;RPC -->
<g id="edge2" class="edge">
<title>Client:e&#45;&gt;RPC:w</title>
<path fill="none" stroke="#475569" stroke-width="1.1" d="M197.56,-255C228.3,-255 311.78,-255 342.6,-255"/>
<polygon fill="#475569" stroke="#475569" stroke-width="1.1" points="197.66,-251.5 187.66,-255 197.66,-258.5 197.66,-251.5"/>
<polygon fill="#475569" stroke="#475569" stroke-width="1.1" points="342.59,-258.5 352.59,-255 342.59,-251.5 342.59,-258.5"/>
<text xml:space="preserve" text-anchor="middle" x="270.12" y="-256.75" font-family="Helvetica,sans-Serif" font-size="10.00" fill="#334155">send tx / proofs</text>
</g>
<!-- Solana -->
<g id="node3" class="node">
<title>Solana</title>
<path fill="#eef2ff" stroke="none" stroke-width="1.2" d="M1065.75,-292C1065.75,-292 691.75,-292 691.75,-292 685.75,-292 679.75,-286 679.75,-280 679.75,-280 679.75,-12 679.75,-12 679.75,-6 685.75,0 691.75,0 691.75,0 1065.75,0 1065.75,0 1071.75,0 1077.75,-6 1077.75,-12 1077.75,-12 1077.75,-280 1077.75,-280 1077.75,-286 1071.75,-292 1065.75,-292"/>
<path fill="#ffffff" stroke="none" d="M699.75,-4C699.75,-4 1057.75,-4 1057.75,-4 1063.75,-4 1069.75,-10 1069.75,-16 1069.75,-16 1069.75,-276 1069.75,-276 1069.75,-282 1063.75,-288 1057.75,-288 1057.75,-288 699.75,-288 699.75,-288 693.75,-288 687.75,-282 687.75,-276 687.75,-276 687.75,-16 687.75,-16 687.75,-10 693.75,-4 699.75,-4"/>
<text xml:space="preserve" text-anchor="start" x="859.62" y="-268.62" font-family="Helvetica,sans-Serif" font-size="12.00" fill="#0f172a">Solana</text>
<path fill="#eef2ff" stroke="none" d="M706.75,-217C706.75,-217 832.75,-217 832.75,-217 838.75,-217 844.75,-223 844.75,-229 844.75,-229 844.75,-245 844.75,-245 844.75,-251 838.75,-257 832.75,-257 832.75,-257 706.75,-257 706.75,-257 700.75,-257 694.75,-251 694.75,-245 694.75,-245 694.75,-229 694.75,-229 694.75,-223 700.75,-217 706.75,-217"/>
<path fill="none" stroke="#6366f1" d="M706.75,-217C706.75,-217 832.75,-217 832.75,-217 838.75,-217 844.75,-223 844.75,-229 844.75,-229 844.75,-245 844.75,-245 844.75,-251 838.75,-257 832.75,-257 832.75,-257 706.75,-257 706.75,-257 700.75,-257 694.75,-251 694.75,-245 694.75,-245 694.75,-229 694.75,-229 694.75,-223 700.75,-217 706.75,-217"/>
<text xml:space="preserve" text-anchor="start" x="721" y="-234.38" font-family="Helvetica,sans-Serif" font-size="10.00" fill="#1e1b4b">Squads Zone Program</text>
<text xml:space="preserve" text-anchor="start" x="863.75" y="-233.62" font-family="Helvetica,sans-Serif" font-size="10.00" fill="#475569">CPI →</text>
<path fill="#eef2ff" stroke="none" d="M924.75,-109C924.75,-109 1050.75,-109 1050.75,-109 1056.75,-109 1062.75,-115 1062.75,-121 1062.75,-121 1062.75,-245 1062.75,-245 1062.75,-251 1056.75,-257 1050.75,-257 1050.75,-257 924.75,-257 924.75,-257 918.75,-257 912.75,-251 912.75,-245 912.75,-245 912.75,-121 912.75,-121 912.75,-115 918.75,-109 924.75,-109"/>
<path fill="none" stroke="#6366f1" d="M924.75,-109C924.75,-109 1050.75,-109 1050.75,-109 1056.75,-109 1062.75,-115 1062.75,-121 1062.75,-121 1062.75,-245 1062.75,-245 1062.75,-251 1056.75,-257 1050.75,-257 1050.75,-257 924.75,-257 924.75,-257 918.75,-257 912.75,-251 912.75,-245 912.75,-245 912.75,-121 912.75,-121 912.75,-115 918.75,-109 924.75,-109"/>
<text xml:space="preserve" text-anchor="start" x="934.88" y="-186" font-family="Helvetica,sans-Serif" font-size="10.00" fill="#1e1b4b">Solana Privacy Program</text>
<text xml:space="preserve" text-anchor="start" x="974.62" y="-174.75" font-family="Helvetica,sans-Serif" font-size="10.00" fill="#1e1b4b">(SPP)</text>
<path fill="#e0f2fe" stroke="none" d="M704.75,-181C704.75,-181 834.75,-181 834.75,-181 839.75,-181 844.75,-186 844.75,-191 844.75,-191 844.75,-201 844.75,-201 844.75,-206 839.75,-211 834.75,-211 834.75,-211 704.75,-211 704.75,-211 699.75,-211 694.75,-206 694.75,-201 694.75,-201 694.75,-191 694.75,-191 694.75,-186 699.75,-181 704.75,-181"/>
<path fill="none" stroke="#0284c7" d="M704.75,-181C704.75,-181 834.75,-181 834.75,-181 839.75,-181 844.75,-186 844.75,-191 844.75,-191 844.75,-201 844.75,-201 844.75,-206 839.75,-211 834.75,-211 834.75,-211 704.75,-211 704.75,-211 699.75,-211 694.75,-206 694.75,-201 694.75,-201 694.75,-191 694.75,-191 694.75,-186 699.75,-181 704.75,-181"/>
<text xml:space="preserve" text-anchor="start" x="744.25" y="-193.38" font-family="Helvetica,sans-Serif" font-size="10.00" fill="#0c4a6e">Zone config</text>
<path fill="#e0f2fe" stroke="none" d="M704.75,-145C704.75,-145 834.75,-145 834.75,-145 839.75,-145 844.75,-150 844.75,-155 844.75,-155 844.75,-165 844.75,-165 844.75,-170 839.75,-175 834.75,-175 834.75,-175 704.75,-175 704.75,-175 699.75,-175 694.75,-170 694.75,-165 694.75,-165 694.75,-155 694.75,-155 694.75,-150 699.75,-145 704.75,-145"/>
<path fill="none" stroke="#0284c7" d="M704.75,-145C704.75,-145 834.75,-145 834.75,-145 839.75,-145 844.75,-150 844.75,-155 844.75,-155 844.75,-165 844.75,-165 844.75,-170 839.75,-175 834.75,-175 834.75,-175 704.75,-175 704.75,-175 699.75,-175 694.75,-170 694.75,-165 694.75,-165 694.75,-155 694.75,-155 694.75,-150 699.75,-145 704.75,-145"/>
<text xml:space="preserve" text-anchor="start" x="721.75" y="-157.38" font-family="Helvetica,sans-Serif" font-size="10.00" fill="#0c4a6e">Viewing key accounts</text>
<path fill="#e0f2fe" stroke="none" d="M704.75,-109C704.75,-109 834.75,-109 834.75,-109 839.75,-109 844.75,-114 844.75,-119 844.75,-119 844.75,-129 844.75,-129 844.75,-134 839.75,-139 834.75,-139 834.75,-139 704.75,-139 704.75,-139 699.75,-139 694.75,-134 694.75,-129 694.75,-129 694.75,-119 694.75,-119 694.75,-114 699.75,-109 704.75,-109"/>
<path fill="none" stroke="#0284c7" d="M704.75,-109C704.75,-109 834.75,-109 834.75,-109 839.75,-109 844.75,-114 844.75,-119 844.75,-119 844.75,-129 844.75,-129 844.75,-134 839.75,-139 834.75,-139 834.75,-139 704.75,-139 704.75,-139 699.75,-139 694.75,-134 694.75,-129 694.75,-129 694.75,-119 694.75,-119 694.75,-114 699.75,-109 704.75,-109"/>
<text xml:space="preserve" text-anchor="start" x="734.12" y="-121.38" font-family="Helvetica,sans-Serif" font-size="10.00" fill="#0c4a6e">Proposal buffers</text>
<path fill="#e0f2fe" stroke="none" d="M922.75,-73C922.75,-73 1052.75,-73 1052.75,-73 1057.75,-73 1062.75,-78 1062.75,-83 1062.75,-83 1062.75,-93 1062.75,-93 1062.75,-98 1057.75,-103 1052.75,-103 1052.75,-103 922.75,-103 922.75,-103 917.75,-103 912.75,-98 912.75,-93 912.75,-93 912.75,-83 912.75,-83 912.75,-78 917.75,-73 922.75,-73"/>
<path fill="none" stroke="#0284c7" d="M922.75,-73C922.75,-73 1052.75,-73 1052.75,-73 1057.75,-73 1062.75,-78 1062.75,-83 1062.75,-83 1062.75,-93 1062.75,-93 1062.75,-98 1057.75,-103 1052.75,-103 1052.75,-103 922.75,-103 922.75,-103 917.75,-103 912.75,-98 912.75,-93 912.75,-93 912.75,-83 912.75,-83 912.75,-78 917.75,-73 922.75,-73"/>
<text xml:space="preserve" text-anchor="start" x="958.5" y="-85.38" font-family="Helvetica,sans-Serif" font-size="10.00" fill="#0c4a6e">SPL interface</text>
<path fill="#e0f2fe" stroke="none" d="M924.75,-11C924.75,-11 1050.75,-11 1050.75,-11 1056.75,-11 1062.75,-17 1062.75,-23 1062.75,-23 1062.75,-55 1062.75,-55 1062.75,-61 1056.75,-67 1050.75,-67 1050.75,-67 924.75,-67 924.75,-67 918.75,-67 912.75,-61 912.75,-55 912.75,-55 912.75,-23 912.75,-23 912.75,-17 918.75,-11 924.75,-11"/>
<path fill="none" stroke="#0284c7" d="M924.75,-11C924.75,-11 1050.75,-11 1050.75,-11 1056.75,-11 1062.75,-17 1062.75,-23 1062.75,-23 1062.75,-55 1062.75,-55 1062.75,-61 1056.75,-67 1050.75,-67 1050.75,-67 924.75,-67 924.75,-67 918.75,-67 912.75,-61 912.75,-55 912.75,-55 912.75,-23 912.75,-23 912.75,-17 918.75,-11 924.75,-11"/>
<text xml:space="preserve" text-anchor="start" x="956.62" y="-53.25" font-family="Helvetica,sans-Serif" font-size="10.00" fill="#0c4a6e">Tree accounts</text>
<text xml:space="preserve" text-anchor="start" x="964.12" y="-42" font-family="Helvetica,sans-Serif" font-size="10.00" fill="#0c4a6e">UTXO tree</text>
<text xml:space="preserve" text-anchor="start" x="962.62" y="-30.75" font-family="Helvetica,sans-Serif" font-size="10.00" fill="#0c4a6e">nullifier tree</text>
<text xml:space="preserve" text-anchor="start" x="957.75" y="-19.5" font-family="Helvetica,sans-Serif" font-size="10.00" fill="#0c4a6e">nullifier queue</text>
<path fill="none" stroke="#cbd5e1" d="M699.75,-4C699.75,-4 1057.75,-4 1057.75,-4 1063.75,-4 1069.75,-10 1069.75,-16 1069.75,-16 1069.75,-276 1069.75,-276 1069.75,-282 1063.75,-288 1057.75,-288 1057.75,-288 699.75,-288 699.75,-288 693.75,-288 687.75,-282 687.75,-276 687.75,-276 687.75,-16 687.75,-16 687.75,-10 693.75,-4 699.75,-4"/>
</g>
<!-- RPC&#45;&gt;Solana -->
<g id="edge3" class="edge">
<title>RPC:e&#45;&gt;Solana:w</title>
<path fill="none" stroke="#475569" stroke-width="1.1" d="M526.25,-255C526.25,-255 644.39,-242.3 682.24,-238.24"/>
<polygon fill="#475569" stroke="#475569" stroke-width="1.1" points="682.53,-241.73 692.09,-237.18 681.78,-234.77 682.53,-241.73"/>
<text xml:space="preserve" text-anchor="middle" x="610" y="-250.93" font-family="Helvetica,sans-Serif" font-size="10.00" fill="#334155">submit tx</text>
</g>
<!-- RPC&#45;&gt;Solana -->
<g id="edge4" class="edge">
<title>RPC:e&#45;&gt;Solana:w</title>
<path fill="none" stroke="#475569" stroke-width="1.1" d="M526.25,-219C526.25,-219 644.39,-231.7 682.24,-235.76"/>
<polygon fill="#475569" stroke="#475569" stroke-width="1.1" points="681.78,-239.23 692.09,-236.82 682.53,-232.27 681.78,-239.23"/>
<text xml:space="preserve" text-anchor="middle" x="610" y="-228.5" font-family="Helvetica,sans-Serif" font-size="10.00" fill="#334155">merge_transact</text>
</g>
</g>
</svg>
